<?xml version="1.0" encoding="utf-8"?>
<!-- Generator: Adobe Illustrator 23.0.6, SVG Export Plug-In . SVG Version: 6.00 Build 0)  -->
<svg version="1.1" id="fafc0ebd-f761-414e-bdb9-acf30b01842c"
	 xmlns="http://www.w3.org/2000/svg" xmlns:xlink="http://www.w3.org/1999/xlink" x="0px" y="0px" viewBox="0 0 114 50"
	 style="enable-background:new 0 0 114 50;" xml:space="preserve">
<style type="text/css">
	.st0{fill:#FFFFFF;}
	.st1{fill:#8C145A;}
	.st2{fill:#F05A28;}
	.st3{fill:#50415A;}
</style>
<title>kilt-logo-website</title>
<path class="st0" d="M6,0h102c3.3,0,6,2.7,6,6v38c0,3.3-2.7,6-6,6H6c-3.3,0-6-2.7-6-6V6C0,2.7,2.7,0,6,0z"/>
<g>
	<path class="st1" d="M87.1,24c0,0-4.6,4.8-3.2,6.3l10,11c0.1,0.1,0.2,0.2,0.4,0.2h7.5c0.3,0,0.5-0.2,0.5-0.5c0-0.1,0-0.3-0.1-0.3
		L87.1,24z"/>
	<path class="st1" d="M96.9,26c0,0,4.6-4.8,3.2-6.3l-10-11c-0.1-0.1-0.2-0.2-0.4-0.2h-7.5c-0.3,0-0.5,0.2-0.5,0.5
		c0,0.1,0.1,0.3,0.2,0.4L96.9,26z"/>
	<path class="st2" d="M96.9,26c0,0,4.6-4.8,3.2-6.3c3.3,3.6,4.8,5.3,5.4,5.9c0.2,0.2,0.2,0.5,0,0.7L88.1,46.2
		c-0.1,0.1-0.2,0.2-0.4,0.2h-7.5c-0.3,0-0.5-0.2-0.5-0.5l0,0c0-0.1,0-0.3,0.1-0.3L96.9,26z"/>
	<path class="st2" d="M87.1,24c0,0-4.6,4.8-3.2,6.3l-5.4-5.9c-0.2-0.2-0.2-0.5,0-0.7L95.9,3.8c0.1-0.1,0.2-0.2,0.4-0.2h7.5
		c0.3,0,0.5,0.2,0.5,0.5c0,0.1,0,0.3-0.1,0.3L87.1,24z"/>
</g>
<path class="st3" d="M37.8,12.5v25c0,0.3-0.2,0.5-0.5,0.5l0,0h-3.4c-0.3,0-0.5-0.2-0.5-0.5l0,0V15.4c0-0.1,0.1-0.3,0.1-0.4l2.6-2.9
	c0.1-0.1,0.2-0.2,0.4-0.2h0.8C37.6,12,37.8,12.2,37.8,12.5L37.8,12.5z M68,12H54.2c-0.3,0-0.5,0.2-0.5,0.5l0,0v2.7
	c0,0.3,0.2,0.5,0.5,0.5H58c0.3,0,0.5,0.2,0.5,0.5l0,0l0,0v21.2c0,0.3,0.2,0.5,0.5,0.5h3.3c0.3,0,0.5-0.2,0.5-0.5l0,0V16.3
	c0-0.3,0.2-0.5,0.5-0.5l0,0h2.2c0.1,0,0.3-0.1,0.4-0.2l2.4-2.6c0.2-0.2,0.2-0.5,0-0.7l0,0C68.3,12,68.2,12,68,12z M54.7,33.9h-6.3
	c-0.3,0-0.5-0.2-0.5-0.5l0,0l0,0V12.5c0-0.3-0.2-0.5-0.5-0.5H44c-0.3,0-0.5,0.2-0.5,0.5v25c0,0.3,0.2,0.5,0.5,0.5h8.2
	c0.1,0,0.3-0.1,0.4-0.2l2.6-3c0.2-0.2,0.2-0.6,0-0.8l0,0C55,34,54.9,33.9,54.7,33.9L54.7,33.9z M23,24.8c-0.1-0.2-0.1-0.3,0-0.5
	l6.3-11.5c0.1-0.3,0-0.6-0.2-0.7c-0.1,0-0.2-0.1-0.2-0.1H25c-0.2,0-0.4,0.1-0.5,0.3l-6.7,12.3l0,0L25,37.8c0.1,0.2,0.3,0.3,0.5,0.3
	h3.8c0.3,0,0.5-0.2,0.5-0.5c0-0.1,0-0.2-0.1-0.3L23,24.8z M16.5,12h-3.4c-0.3,0-0.5,0.2-0.5,0.5l0,0l0,0v25c0,0.3,0.2,0.5,0.5,0.5
	l0,0h3.4c0.3,0,0.5-0.2,0.5-0.5l0,0v-25C17.1,12.2,16.8,12,16.5,12L16.5,12L16.5,12z"/>
</svg>
