<?xml version="1.0" encoding="utf-8"?>
<!-- Generator: Adobe Illustrator 23.1.1, SVG Export Plug-In . SVG Version: 6.00 Build 0)  -->
<svg version="1.1" id="Ebene_1" xmlns="http://www.w3.org/2000/svg" xmlns:xlink="http://www.w3.org/1999/xlink" x="0px" y="0px"
	 viewBox="0 0 24 24" style="enable-background:new 0 0 24 24;" xml:space="preserve">
<style type="text/css">
	.st0{fill:#FFFFFF;}
</style>
<title>Riot icon</title>
<path class="st0" d="M8.4,4.8c-0.4,0-0.8,0.1-1.1,0.4l0,0c-0.7,0.5-1,1.4-0.8,2.2l0,0v9.8c0,1.1,0.9,2,2,2s2-0.9,2-2v-2h1.1l2.3,3.2
	c0.7,0.9,1.9,1.1,2.8,0.5l0,0c0.9-0.7,1.1-1.9,0.5-2.8l0,0l-1.4-2c1.2-1,1.9-2.5,1.9-4c0-2.8-2.3-5.2-5.2-5.2h-4l0,0L8.4,4.8
	L8.4,4.8z M9.7,5.3h2.8c2.5,0.1,4.6,2.2,4.6,4.7c0,1.3-0.6,2.6-1.6,3.4l-0.3-0.4c1.7-1.5,1.9-4.1,0.4-5.8c-0.8-0.9-1.9-1.4-3.1-1.4
	h-2.4c0.1-0.1,0-0.1-0.1-0.1l0,0C10,5.5,9.9,5.4,9.7,5.3L9.7,5.3L9.7,5.3z M10.4,6.3h2.2c2,0,3.6,1.6,3.6,3.6c0,1-0.4,2-1.2,2.7
	l-0.3-0.4c1.3-1.1,1.3-3.1,0.2-4.4c-0.6-0.7-1.4-1-2.3-1h-2.1C10.5,6.6,10.4,6.5,10.4,6.3C10.4,6.3,10.4,6.3,10.4,6.3z M10.4,7.4
	h2.2c1.4,0.1,2.5,1.2,2.5,2.6c0,0.7-0.3,1.3-0.8,1.7l-0.1-0.2c-0.1-0.1-0.1-0.1-0.2-0.2c0.4-0.4,0.5-0.8,0.5-1.4
	c0-1.1-0.9-2.1-2-2.1h-2.4C10.3,7.7,10.3,7.5,10.4,7.4L10.4,7.4L10.4,7.4z M6.9,8.3C7,8.4,7.2,8.6,7.4,8.7l0,0v8.5c0,0.6,0.5,1,1,1
	c0.5,0,1-0.5,1-1v-3.1h1.4l0.4,0.5H10v2.6c0,0.8-0.7,1.4-1.6,1.4c-0.8,0-1.4-0.7-1.5-1.5V8.3L6.9,8.3z M10,8.4h2.6
	c0.8,0,1.6,0.7,1.6,1.6l0,0c0,0.4-0.2,0.8-0.5,1.1c-0.2-0.1-0.3-0.2-0.5-0.2c0.3-0.2,0.4-0.5,0.4-0.8c0-0.6-0.5-1-1-1h-2V11h0.9
	c-0.2,0.1-0.4,0.3-0.5,0.5H10C10,11.5,10,8.4,10,8.4z M9.5,8.6V12h1.1c-0.1,0.2-0.1,0.4-0.1,0.5H9V8.8C9.1,8.7,9.3,8.7,9.5,8.6
	L9.5,8.6z M7.9,8.9c0.1,0,0.3,0.1,0.5,0.1h0.1l0,0v4.1h2c0,0.2,0.1,0.4,0.1,0.5H9v3.6c0,0.3-0.2,0.5-0.5,0.5c-0.3,0-0.5-0.2-0.5-0.5
	l0,0C7.9,17.1,7.9,8.9,7.9,8.9z M11,9.4h1.6c0.3,0,0.5,0.2,0.5,0.5c0,0.3-0.2,0.5-0.5,0.5H11L11,9.4L11,9.4z"/>
</svg>
